<mxfile host="app.diagrams.net" agent="Mozilla/5.0 (Windows NT 10.0; Win64; x64) AppleWebKit/537.36 (KHTML, like Gecko) Chrome/129.0.0.0 Safari/537.36" version="24.7.17">
  <diagram name="페이지-1" id="TYq_ApGEIpMDeUxepOo6">
    <mxGraphModel dx="2901" dy="2267" grid="1" gridSize="10" guides="1" tooltips="1" connect="1" arrows="1" fold="1" page="1" pageScale="1" pageWidth="827" pageHeight="1169" math="0" shadow="0">
      <root>
        <mxCell id="0" />
        <mxCell id="1" parent="0" />
        <mxCell id="Ynk3GF6o_Werr5BvIIEe-1" value="" style="shape=umlLifeline;perimeter=lifelinePerimeter;whiteSpace=wrap;html=1;container=1;dropTarget=0;collapsible=0;recursiveResize=0;outlineConnect=0;portConstraint=eastwest;newEdgeStyle={&quot;curved&quot;:0,&quot;rounded&quot;:0};participant=umlActor;" vertex="1" parent="1">
          <mxGeometry x="5" y="-68" width="20" height="580" as="geometry" />
        </mxCell>
        <mxCell id="Ynk3GF6o_Werr5BvIIEe-2" value=":application" style="shape=umlLifeline;perimeter=lifelinePerimeter;whiteSpace=wrap;html=1;container=1;dropTarget=0;collapsible=0;recursiveResize=0;outlineConnect=0;portConstraint=eastwest;newEdgeStyle={&quot;curved&quot;:0,&quot;rounded&quot;:0};" vertex="1" parent="1">
          <mxGeometry x="205" y="-68" width="100" height="580" as="geometry" />
        </mxCell>
        <mxCell id="Ynk3GF6o_Werr5BvIIEe-3" value=":domain" style="shape=umlLifeline;perimeter=lifelinePerimeter;whiteSpace=wrap;html=1;container=1;dropTarget=0;collapsible=0;recursiveResize=0;outlineConnect=0;portConstraint=eastwest;newEdgeStyle={&quot;curved&quot;:0,&quot;rounded&quot;:0};" vertex="1" parent="1">
          <mxGeometry x="325" y="-68" width="100" height="580" as="geometry" />
        </mxCell>
        <mxCell id="Ynk3GF6o_Werr5BvIIEe-4" value=":infra" style="shape=umlLifeline;perimeter=lifelinePerimeter;whiteSpace=wrap;html=1;container=1;dropTarget=0;collapsible=0;recursiveResize=0;outlineConnect=0;portConstraint=eastwest;newEdgeStyle={&quot;curved&quot;:0,&quot;rounded&quot;:0};" vertex="1" parent="1">
          <mxGeometry x="445" y="-68" width="100" height="580" as="geometry" />
        </mxCell>
        <mxCell id="Ynk3GF6o_Werr5BvIIEe-5" value="" style="html=1;points=[[0,0,0,0,5],[0,1,0,0,-5],[1,0,0,0,5],[1,1,0,0,-5]];perimeter=orthogonalPerimeter;outlineConnect=0;targetShapes=umlLifeline;portConstraint=eastwest;newEdgeStyle={&quot;curved&quot;:0,&quot;rounded&quot;:0};" vertex="1" parent="Ynk3GF6o_Werr5BvIIEe-4">
          <mxGeometry x="45" y="210" width="10" height="50" as="geometry" />
        </mxCell>
        <mxCell id="Ynk3GF6o_Werr5BvIIEe-6" value="대기번호 확인 요청" style="html=1;verticalAlign=bottom;endArrow=block;curved=0;rounded=0;" edge="1" parent="1" target="Ynk3GF6o_Werr5BvIIEe-16">
          <mxGeometry width="80" relative="1" as="geometry">
            <mxPoint x="15" y="12" as="sourcePoint" />
            <mxPoint x="95" y="12" as="targetPoint" />
          </mxGeometry>
        </mxCell>
        <mxCell id="Ynk3GF6o_Werr5BvIIEe-7" value="대기번호 조회" style="html=1;verticalAlign=bottom;endArrow=block;curved=0;rounded=0;" edge="1" parent="1" target="Ynk3GF6o_Werr5BvIIEe-2">
          <mxGeometry width="80" relative="1" as="geometry">
            <mxPoint x="135" y="32" as="sourcePoint" />
            <mxPoint x="255" y="32" as="targetPoint" />
          </mxGeometry>
        </mxCell>
        <mxCell id="Ynk3GF6o_Werr5BvIIEe-8" value="큐 상태 조회" style="html=1;verticalAlign=bottom;endArrow=block;curved=0;rounded=0;" edge="1" parent="1">
          <mxGeometry width="80" relative="1" as="geometry">
            <mxPoint x="255" y="42" as="sourcePoint" />
            <mxPoint x="375" y="42" as="targetPoint" />
            <mxPoint as="offset" />
          </mxGeometry>
        </mxCell>
        <mxCell id="Ynk3GF6o_Werr5BvIIEe-9" value="alt" style="shape=umlFrame;whiteSpace=wrap;html=1;pointerEvents=0;recursiveResize=0;container=1;collapsible=0;width=56;height=30;" vertex="1" parent="1">
          <mxGeometry x="-21" y="112" width="570" height="400" as="geometry" />
        </mxCell>
        <mxCell id="Ynk3GF6o_Werr5BvIIEe-10" value="[&lt;font style=&quot;font-size: 10px;&quot;&gt;대기 번호 없음&lt;/font&gt;]" style="text;html=1;" vertex="1" parent="Ynk3GF6o_Werr5BvIIEe-9">
          <mxGeometry width="100" height="20" relative="1" as="geometry">
            <mxPoint x="16" y="40" as="offset" />
          </mxGeometry>
        </mxCell>
        <mxCell id="Ynk3GF6o_Werr5BvIIEe-11" value="[&lt;font style=&quot;font-size: 10px;&quot;&gt;대기 번호 존재&lt;/font&gt;]" style="line;strokeWidth=1;dashed=1;labelPosition=center;verticalLabelPosition=bottom;align=left;verticalAlign=top;spacingLeft=20;spacingTop=15;html=1;whiteSpace=wrap;" vertex="1" parent="Ynk3GF6o_Werr5BvIIEe-9">
          <mxGeometry y="195" width="570" height="10" as="geometry" />
        </mxCell>
        <mxCell id="Ynk3GF6o_Werr5BvIIEe-12" value="큐 토큰 저장" style="html=1;verticalAlign=bottom;endArrow=block;curved=0;rounded=0;entryX=0;entryY=0;entryDx=0;entryDy=5;" edge="1" parent="Ynk3GF6o_Werr5BvIIEe-9" target="Ynk3GF6o_Werr5BvIIEe-5">
          <mxGeometry relative="1" as="geometry">
            <mxPoint x="396" y="35" as="sourcePoint" />
          </mxGeometry>
        </mxCell>
        <mxCell id="Ynk3GF6o_Werr5BvIIEe-13" value="큐 토큰 생성 완료" style="html=1;verticalAlign=bottom;endArrow=block;curved=0;rounded=0;" edge="1" parent="Ynk3GF6o_Werr5BvIIEe-9">
          <mxGeometry width="80" relative="1" as="geometry">
            <mxPoint x="395.57" y="90" as="sourcePoint" />
            <mxPoint x="275.9985714285713" y="90" as="targetPoint" />
          </mxGeometry>
        </mxCell>
        <mxCell id="Ynk3GF6o_Werr5BvIIEe-14" value="큐 토큰 반환" style="html=1;verticalAlign=bottom;endArrow=block;curved=0;rounded=0;" edge="1" parent="Ynk3GF6o_Werr5BvIIEe-9">
          <mxGeometry width="80" relative="1" as="geometry">
            <mxPoint x="275.57" y="110" as="sourcePoint" />
            <mxPoint x="155.99857142857132" y="110" as="targetPoint" />
          </mxGeometry>
        </mxCell>
        <mxCell id="Ynk3GF6o_Werr5BvIIEe-15" value="큐 토큰 응답" style="html=1;verticalAlign=bottom;endArrow=block;curved=0;rounded=0;" edge="1" parent="Ynk3GF6o_Werr5BvIIEe-9">
          <mxGeometry width="80" relative="1" as="geometry">
            <mxPoint x="155.57" y="130" as="sourcePoint" />
            <mxPoint x="35.998571428571324" y="130" as="targetPoint" />
          </mxGeometry>
        </mxCell>
        <mxCell id="Ynk3GF6o_Werr5BvIIEe-16" value=":presentation" style="shape=umlLifeline;perimeter=lifelinePerimeter;whiteSpace=wrap;html=1;container=1;dropTarget=0;collapsible=0;recursiveResize=0;outlineConnect=0;portConstraint=eastwest;newEdgeStyle={&quot;curved&quot;:0,&quot;rounded&quot;:0};" vertex="1" parent="Ynk3GF6o_Werr5BvIIEe-9">
          <mxGeometry x="106" y="-180" width="100" height="580" as="geometry" />
        </mxCell>
        <mxCell id="Ynk3GF6o_Werr5BvIIEe-17" value="대기번호/남은 시간 반환" style="html=1;verticalAlign=bottom;endArrow=block;curved=0;rounded=0;" edge="1" parent="Ynk3GF6o_Werr5BvIIEe-9">
          <mxGeometry width="80" relative="1" as="geometry">
            <mxPoint x="395.57" y="250" as="sourcePoint" />
            <mxPoint x="275.9985714285713" y="250" as="targetPoint" />
          </mxGeometry>
        </mxCell>
        <mxCell id="Ynk3GF6o_Werr5BvIIEe-18" value="대기번호/남은 시간 반환" style="html=1;verticalAlign=bottom;endArrow=block;curved=0;rounded=0;" edge="1" parent="Ynk3GF6o_Werr5BvIIEe-9">
          <mxGeometry width="80" relative="1" as="geometry">
            <mxPoint x="275.57" y="270" as="sourcePoint" />
            <mxPoint x="155.99857142857132" y="270" as="targetPoint" />
          </mxGeometry>
        </mxCell>
        <mxCell id="Ynk3GF6o_Werr5BvIIEe-19" value="대기열 번호" style="html=1;verticalAlign=bottom;endArrow=block;curved=0;rounded=0;" edge="1" parent="Ynk3GF6o_Werr5BvIIEe-9">
          <mxGeometry width="80" relative="1" as="geometry">
            <mxPoint x="155.57" y="290" as="sourcePoint" />
            <mxPoint x="35.998571428571324" y="290" as="targetPoint" />
          </mxGeometry>
        </mxCell>
        <mxCell id="Ynk3GF6o_Werr5BvIIEe-20" value="" style="html=1;points=[[0,0,0,0,5],[0,1,0,0,-5],[1,0,0,0,5],[1,1,0,0,-5]];perimeter=orthogonalPerimeter;outlineConnect=0;targetShapes=umlLifeline;portConstraint=eastwest;newEdgeStyle={&quot;curved&quot;:0,&quot;rounded&quot;:0};" vertex="1" parent="1">
          <mxGeometry x="490" y="48" width="10" height="44" as="geometry" />
        </mxCell>
        <mxCell id="Ynk3GF6o_Werr5BvIIEe-21" value="큐 상태 조회" style="html=1;verticalAlign=bottom;endArrow=block;curved=0;rounded=0;entryX=0;entryY=0;entryDx=0;entryDy=5;" edge="1" parent="1" source="Ynk3GF6o_Werr5BvIIEe-3" target="Ynk3GF6o_Werr5BvIIEe-20">
          <mxGeometry relative="1" as="geometry">
            <mxPoint x="420" y="53" as="sourcePoint" />
          </mxGeometry>
        </mxCell>
        <mxCell id="Ynk3GF6o_Werr5BvIIEe-22" value="대기열 반환" style="html=1;verticalAlign=bottom;endArrow=open;dashed=1;endSize=8;curved=0;rounded=0;exitX=0;exitY=1;exitDx=0;exitDy=-5;" edge="1" parent="1" source="Ynk3GF6o_Werr5BvIIEe-20" target="Ynk3GF6o_Werr5BvIIEe-3">
          <mxGeometry relative="1" as="geometry">
            <mxPoint x="420" y="123" as="targetPoint" />
          </mxGeometry>
        </mxCell>
        <mxCell id="Ynk3GF6o_Werr5BvIIEe-23" value="큐 토큰 반환" style="html=1;verticalAlign=bottom;endArrow=open;dashed=1;endSize=8;curved=0;rounded=0;exitX=0;exitY=1;exitDx=0;exitDy=-5;" edge="1" parent="1" source="Ynk3GF6o_Werr5BvIIEe-5" target="Ynk3GF6o_Werr5BvIIEe-3">
          <mxGeometry relative="1" as="geometry">
            <mxPoint x="375" y="217" as="targetPoint" />
          </mxGeometry>
        </mxCell>
        <mxCell id="Ynk3GF6o_Werr5BvIIEe-24" value="&lt;span style=&quot;text-wrap: nowrap;&quot;&gt;대기열 발급/조회&lt;/span&gt;" style="html=1;whiteSpace=wrap;" vertex="1" parent="1">
          <mxGeometry x="-40" y="-108" width="110" height="30" as="geometry" />
        </mxCell>
        <mxCell id="Ynk3GF6o_Werr5BvIIEe-25" value="" style="shape=umlLifeline;perimeter=lifelinePerimeter;whiteSpace=wrap;html=1;container=1;dropTarget=0;collapsible=0;recursiveResize=0;outlineConnect=0;portConstraint=eastwest;newEdgeStyle={&quot;curved&quot;:0,&quot;rounded&quot;:0};participant=umlActor;" vertex="1" parent="1">
          <mxGeometry x="5" y="2709" width="20" height="580" as="geometry" />
        </mxCell>
        <mxCell id="Ynk3GF6o_Werr5BvIIEe-26" value=":application" style="shape=umlLifeline;perimeter=lifelinePerimeter;whiteSpace=wrap;html=1;container=1;dropTarget=0;collapsible=0;recursiveResize=0;outlineConnect=0;portConstraint=eastwest;newEdgeStyle={&quot;curved&quot;:0,&quot;rounded&quot;:0};" vertex="1" parent="1">
          <mxGeometry x="205" y="2709" width="100" height="580" as="geometry" />
        </mxCell>
        <mxCell id="Ynk3GF6o_Werr5BvIIEe-27" value=":domain" style="shape=umlLifeline;perimeter=lifelinePerimeter;whiteSpace=wrap;html=1;container=1;dropTarget=0;collapsible=0;recursiveResize=0;outlineConnect=0;portConstraint=eastwest;newEdgeStyle={&quot;curved&quot;:0,&quot;rounded&quot;:0};" vertex="1" parent="1">
          <mxGeometry x="325" y="2709" width="100" height="580" as="geometry" />
        </mxCell>
        <mxCell id="Ynk3GF6o_Werr5BvIIEe-28" value=":infra" style="shape=umlLifeline;perimeter=lifelinePerimeter;whiteSpace=wrap;html=1;container=1;dropTarget=0;collapsible=0;recursiveResize=0;outlineConnect=0;portConstraint=eastwest;newEdgeStyle={&quot;curved&quot;:0,&quot;rounded&quot;:0};" vertex="1" parent="1">
          <mxGeometry x="445" y="2709" width="100" height="580" as="geometry" />
        </mxCell>
        <mxCell id="Ynk3GF6o_Werr5BvIIEe-29" value="" style="html=1;points=[[0,0,0,0,5],[0,1,0,0,-5],[1,0,0,0,5],[1,1,0,0,-5]];perimeter=orthogonalPerimeter;outlineConnect=0;targetShapes=umlLifeline;portConstraint=eastwest;newEdgeStyle={&quot;curved&quot;:0,&quot;rounded&quot;:0};" vertex="1" parent="Ynk3GF6o_Werr5BvIIEe-28">
          <mxGeometry x="45" y="400" width="10" height="44" as="geometry" />
        </mxCell>
        <mxCell id="Ynk3GF6o_Werr5BvIIEe-30" value="충전 잔액 응답" style="html=1;verticalAlign=bottom;endArrow=open;dashed=1;endSize=8;curved=0;rounded=0;exitX=0;exitY=1;exitDx=0;exitDy=-5;" edge="1" parent="Ynk3GF6o_Werr5BvIIEe-28" source="Ynk3GF6o_Werr5BvIIEe-29">
          <mxGeometry relative="1" as="geometry">
            <mxPoint x="-70" y="439" as="targetPoint" />
          </mxGeometry>
        </mxCell>
        <mxCell id="Ynk3GF6o_Werr5BvIIEe-31" value="\" style="text;html=1;align=center;verticalAlign=middle;resizable=0;points=[];autosize=1;strokeColor=none;fillColor=none;" vertex="1" parent="1">
          <mxGeometry x="30" y="2667" width="30" height="30" as="geometry" />
        </mxCell>
        <mxCell id="Ynk3GF6o_Werr5BvIIEe-32" value="잔액 조회 요청" style="html=1;verticalAlign=bottom;endArrow=block;curved=0;rounded=0;" edge="1" parent="1" target="Ynk3GF6o_Werr5BvIIEe-39">
          <mxGeometry x="-0.0038" width="80" relative="1" as="geometry">
            <mxPoint x="15" y="2789" as="sourcePoint" />
            <mxPoint x="95" y="2789" as="targetPoint" />
            <mxPoint as="offset" />
          </mxGeometry>
        </mxCell>
        <mxCell id="Ynk3GF6o_Werr5BvIIEe-33" value="잔액 조회" style="html=1;verticalAlign=bottom;endArrow=block;curved=0;rounded=0;" edge="1" parent="1" target="Ynk3GF6o_Werr5BvIIEe-26">
          <mxGeometry width="80" relative="1" as="geometry">
            <mxPoint x="135" y="2809" as="sourcePoint" />
            <mxPoint x="255" y="2809" as="targetPoint" />
          </mxGeometry>
        </mxCell>
        <mxCell id="Ynk3GF6o_Werr5BvIIEe-34" value="잔액 조회" style="html=1;verticalAlign=bottom;endArrow=block;curved=0;rounded=0;" edge="1" parent="1">
          <mxGeometry width="80" relative="1" as="geometry">
            <mxPoint x="255" y="2819" as="sourcePoint" />
            <mxPoint x="375" y="2819" as="targetPoint" />
            <mxPoint as="offset" />
          </mxGeometry>
        </mxCell>
        <mxCell id="Ynk3GF6o_Werr5BvIIEe-35" value="" style="html=1;points=[[0,0,0,0,5],[0,1,0,0,-5],[1,0,0,0,5],[1,1,0,0,-5]];perimeter=orthogonalPerimeter;outlineConnect=0;targetShapes=umlLifeline;portConstraint=eastwest;newEdgeStyle={&quot;curved&quot;:0,&quot;rounded&quot;:0};" vertex="1" parent="1">
          <mxGeometry x="490" y="2825" width="10" height="44" as="geometry" />
        </mxCell>
        <mxCell id="Ynk3GF6o_Werr5BvIIEe-36" value="잔액 조회" style="html=1;verticalAlign=bottom;endArrow=block;curved=0;rounded=0;entryX=0;entryY=0;entryDx=0;entryDy=5;" edge="1" parent="1" source="Ynk3GF6o_Werr5BvIIEe-27" target="Ynk3GF6o_Werr5BvIIEe-35">
          <mxGeometry relative="1" as="geometry">
            <mxPoint x="420" y="2830" as="sourcePoint" />
          </mxGeometry>
        </mxCell>
        <mxCell id="Ynk3GF6o_Werr5BvIIEe-37" value="잔액 조회 응답" style="html=1;verticalAlign=bottom;endArrow=open;dashed=1;endSize=8;curved=0;rounded=0;exitX=0;exitY=1;exitDx=0;exitDy=-5;" edge="1" parent="1" source="Ynk3GF6o_Werr5BvIIEe-35" target="Ynk3GF6o_Werr5BvIIEe-27">
          <mxGeometry relative="1" as="geometry">
            <mxPoint x="420" y="2900" as="targetPoint" />
          </mxGeometry>
        </mxCell>
        <mxCell id="Ynk3GF6o_Werr5BvIIEe-38" value="잔액 조회 API" style="html=1;whiteSpace=wrap;" vertex="1" parent="1">
          <mxGeometry x="-21" y="2667" width="90" height="32" as="geometry" />
        </mxCell>
        <mxCell id="Ynk3GF6o_Werr5BvIIEe-39" value=":presentation" style="shape=umlLifeline;perimeter=lifelinePerimeter;whiteSpace=wrap;html=1;container=1;dropTarget=0;collapsible=0;recursiveResize=0;outlineConnect=0;portConstraint=eastwest;newEdgeStyle={&quot;curved&quot;:0,&quot;rounded&quot;:0};" vertex="1" parent="1">
          <mxGeometry x="85" y="2709" width="100" height="580" as="geometry" />
        </mxCell>
        <mxCell id="Ynk3GF6o_Werr5BvIIEe-40" value="잔액 조회 응답" style="html=1;verticalAlign=bottom;endArrow=open;dashed=1;endSize=8;curved=0;rounded=0;exitX=0;exitY=1;exitDx=0;exitDy=-5;" edge="1" parent="1">
          <mxGeometry relative="1" as="geometry">
            <mxPoint x="255" y="2879" as="targetPoint" />
            <mxPoint x="370" y="2879" as="sourcePoint" />
          </mxGeometry>
        </mxCell>
        <mxCell id="Ynk3GF6o_Werr5BvIIEe-41" value="잔액 조회 응답" style="html=1;verticalAlign=bottom;endArrow=open;dashed=1;endSize=8;curved=0;rounded=0;exitX=0;exitY=1;exitDx=0;exitDy=-5;" edge="1" parent="1">
          <mxGeometry relative="1" as="geometry">
            <mxPoint x="135" y="2899" as="targetPoint" />
            <mxPoint x="250" y="2899" as="sourcePoint" />
          </mxGeometry>
        </mxCell>
        <mxCell id="Ynk3GF6o_Werr5BvIIEe-42" value="잔액 조회 응답" style="html=1;verticalAlign=bottom;endArrow=open;dashed=1;endSize=8;curved=0;rounded=0;exitX=0;exitY=1;exitDx=0;exitDy=-5;" edge="1" parent="1">
          <mxGeometry relative="1" as="geometry">
            <mxPoint x="15" y="2909" as="targetPoint" />
            <mxPoint x="130" y="2909" as="sourcePoint" />
          </mxGeometry>
        </mxCell>
        <mxCell id="Ynk3GF6o_Werr5BvIIEe-43" value="잔액 충전 API" style="html=1;whiteSpace=wrap;" vertex="1" parent="1">
          <mxGeometry x="-21" y="2969" width="90" height="32" as="geometry" />
        </mxCell>
        <mxCell id="Ynk3GF6o_Werr5BvIIEe-44" value="잔액 충전 요청" style="html=1;verticalAlign=bottom;endArrow=block;curved=0;rounded=0;" edge="1" parent="1">
          <mxGeometry x="-0.0038" width="80" relative="1" as="geometry">
            <mxPoint x="15" y="3059" as="sourcePoint" />
            <mxPoint x="135" y="3059" as="targetPoint" />
            <mxPoint as="offset" />
          </mxGeometry>
        </mxCell>
        <mxCell id="Ynk3GF6o_Werr5BvIIEe-45" value="&lt;div&gt;잔액 충전&lt;/div&gt;userId,amount&amp;nbsp;" style="html=1;verticalAlign=bottom;endArrow=block;curved=0;rounded=0;" edge="1" parent="1">
          <mxGeometry x="-0.0038" width="80" relative="1" as="geometry">
            <mxPoint x="135" y="3079" as="sourcePoint" />
            <mxPoint x="255" y="3079" as="targetPoint" />
            <mxPoint as="offset" />
          </mxGeometry>
        </mxCell>
        <mxCell id="Ynk3GF6o_Werr5BvIIEe-46" value="charge point" style="html=1;verticalAlign=bottom;endArrow=block;curved=0;rounded=0;" edge="1" parent="1">
          <mxGeometry x="-0.0038" width="80" relative="1" as="geometry">
            <mxPoint x="255" y="3099" as="sourcePoint" />
            <mxPoint x="375" y="3099" as="targetPoint" />
            <mxPoint as="offset" />
          </mxGeometry>
        </mxCell>
        <mxCell id="Ynk3GF6o_Werr5BvIIEe-47" value="잔액 충전" style="html=1;verticalAlign=bottom;endArrow=block;curved=0;rounded=0;" edge="1" parent="1" target="Ynk3GF6o_Werr5BvIIEe-29">
          <mxGeometry x="-0.0038" width="80" relative="1" as="geometry">
            <mxPoint x="375" y="3119" as="sourcePoint" />
            <mxPoint x="485" y="3119" as="targetPoint" />
            <mxPoint as="offset" />
          </mxGeometry>
        </mxCell>
        <mxCell id="Ynk3GF6o_Werr5BvIIEe-48" value="현재 잔액 응답" style="html=1;verticalAlign=bottom;endArrow=open;dashed=1;endSize=8;curved=0;rounded=0;exitX=0;exitY=1;exitDx=0;exitDy=-5;" edge="1" parent="1">
          <mxGeometry relative="1" as="geometry">
            <mxPoint x="255" y="3158" as="targetPoint" />
            <mxPoint x="370" y="3158" as="sourcePoint" />
          </mxGeometry>
        </mxCell>
        <mxCell id="Ynk3GF6o_Werr5BvIIEe-49" value="현재 잔액 응답" style="html=1;verticalAlign=bottom;endArrow=open;dashed=1;endSize=8;curved=0;rounded=0;exitX=0;exitY=1;exitDx=0;exitDy=-5;" edge="1" parent="1">
          <mxGeometry relative="1" as="geometry">
            <mxPoint x="135" y="3179" as="targetPoint" />
            <mxPoint x="250" y="3179" as="sourcePoint" />
          </mxGeometry>
        </mxCell>
        <mxCell id="Ynk3GF6o_Werr5BvIIEe-50" value="현재 잔액 응답" style="html=1;verticalAlign=bottom;endArrow=open;dashed=1;endSize=8;curved=0;rounded=0;exitX=0;exitY=1;exitDx=0;exitDy=-5;" edge="1" parent="1">
          <mxGeometry relative="1" as="geometry">
            <mxPoint x="15" y="3199" as="targetPoint" />
            <mxPoint x="130" y="3199" as="sourcePoint" />
          </mxGeometry>
        </mxCell>
        <mxCell id="Ynk3GF6o_Werr5BvIIEe-51" value="" style="shape=umlLifeline;perimeter=lifelinePerimeter;whiteSpace=wrap;html=1;container=1;dropTarget=0;collapsible=0;recursiveResize=0;outlineConnect=0;portConstraint=eastwest;newEdgeStyle={&quot;curved&quot;:0,&quot;rounded&quot;:0};participant=umlActor;" vertex="1" parent="1">
          <mxGeometry x="19" y="732" width="20" height="1170" as="geometry" />
        </mxCell>
        <mxCell id="Ynk3GF6o_Werr5BvIIEe-52" value="Application" style="shape=umlLifeline;perimeter=lifelinePerimeter;whiteSpace=wrap;html=1;container=1;dropTarget=0;collapsible=0;recursiveResize=0;outlineConnect=0;portConstraint=eastwest;newEdgeStyle={&quot;curved&quot;:0,&quot;rounded&quot;:0};" vertex="1" parent="1">
          <mxGeometry x="219" y="732" width="100" height="1170" as="geometry" />
        </mxCell>
        <mxCell id="Ynk3GF6o_Werr5BvIIEe-53" value="\" style="text;html=1;align=center;verticalAlign=middle;resizable=0;points=[];autosize=1;strokeColor=none;fillColor=none;" vertex="1" parent="1">
          <mxGeometry x="44" y="690" width="30" height="30" as="geometry" />
        </mxCell>
        <mxCell id="Ynk3GF6o_Werr5BvIIEe-54" value="큐 상태 요청" style="html=1;verticalAlign=bottom;endArrow=block;curved=0;rounded=0;" edge="1" parent="1">
          <mxGeometry width="80" relative="1" as="geometry">
            <mxPoint x="29" y="832" as="sourcePoint" />
            <mxPoint x="148.5" y="832" as="targetPoint" />
          </mxGeometry>
        </mxCell>
        <mxCell id="Ynk3GF6o_Werr5BvIIEe-55" value="예약 가능 날짜" style="html=1;whiteSpace=wrap;" vertex="1" parent="1">
          <mxGeometry x="-7" y="690" width="90" height="32" as="geometry" />
        </mxCell>
        <mxCell id="Ynk3GF6o_Werr5BvIIEe-56" value="Queue" style="shape=umlLifeline;perimeter=lifelinePerimeter;whiteSpace=wrap;html=1;container=1;dropTarget=0;collapsible=0;recursiveResize=0;outlineConnect=0;portConstraint=eastwest;newEdgeStyle={&quot;curved&quot;:0,&quot;rounded&quot;:0};" vertex="1" parent="1">
          <mxGeometry x="99" y="732" width="100" height="1170" as="geometry" />
        </mxCell>
        <mxCell id="Ynk3GF6o_Werr5BvIIEe-57" value="database" style="shape=umlLifeline;perimeter=lifelinePerimeter;whiteSpace=wrap;html=1;container=1;dropTarget=0;collapsible=0;recursiveResize=0;outlineConnect=0;portConstraint=eastwest;newEdgeStyle={&quot;curved&quot;:0,&quot;rounded&quot;:0};" vertex="1" parent="1">
          <mxGeometry x="349" y="732" width="100" height="1170" as="geometry" />
        </mxCell>
        <mxCell id="Ynk3GF6o_Werr5BvIIEe-58" value="&lt;font style=&quot;font-size: 10px;&quot;&gt;토큰 정보 확인&lt;/font&gt;" style="html=1;verticalAlign=bottom;endArrow=block;curved=0;rounded=0;" edge="1" parent="1" target="Ynk3GF6o_Werr5BvIIEe-56">
          <mxGeometry x="-0.5749" y="4" width="80" relative="1" as="geometry">
            <mxPoint x="149" y="848" as="sourcePoint" />
            <mxPoint x="148.92857142857133" y="898" as="targetPoint" />
            <Array as="points">
              <mxPoint x="219" y="848" />
              <mxPoint x="219" y="882" />
              <mxPoint x="189" y="882" />
            </Array>
            <mxPoint as="offset" />
          </mxGeometry>
        </mxCell>
        <mxCell id="Ynk3GF6o_Werr5BvIIEe-59" value="alt" style="shape=umlFrame;whiteSpace=wrap;html=1;pointerEvents=0;recursiveResize=0;container=1;collapsible=0;width=56;height=30;" vertex="1" parent="1">
          <mxGeometry x="-21" y="902" width="530" height="400" as="geometry" />
        </mxCell>
        <mxCell id="Ynk3GF6o_Werr5BvIIEe-60" value="[&lt;font style=&quot;font-size: 10px;&quot;&gt;대기 번호 없음&lt;/font&gt;]" style="text;html=1;" vertex="1" parent="Ynk3GF6o_Werr5BvIIEe-59">
          <mxGeometry width="100" height="20" relative="1" as="geometry">
            <mxPoint x="16" y="40" as="offset" />
          </mxGeometry>
        </mxCell>
        <mxCell id="Ynk3GF6o_Werr5BvIIEe-61" value="[&lt;font style=&quot;font-size: 10px;&quot;&gt;대기 번호 존재&lt;/font&gt;]" style="line;strokeWidth=1;dashed=1;labelPosition=center;verticalLabelPosition=bottom;align=left;verticalAlign=top;spacingLeft=20;spacingTop=15;html=1;whiteSpace=wrap;" vertex="1" parent="Ynk3GF6o_Werr5BvIIEe-59">
          <mxGeometry y="195" width="530" height="10" as="geometry" />
        </mxCell>
        <mxCell id="Ynk3GF6o_Werr5BvIIEe-62" value="큐 토큰 저장" style="html=1;verticalAlign=bottom;endArrow=block;curved=0;rounded=0;entryX=0;entryY=0;entryDx=0;entryDy=5;" edge="1" parent="Ynk3GF6o_Werr5BvIIEe-59">
          <mxGeometry relative="1" as="geometry">
            <mxPoint x="396" y="35" as="sourcePoint" />
          </mxGeometry>
        </mxCell>
        <mxCell id="Ynk3GF6o_Werr5BvIIEe-63" value="검증 실패 응답" style="html=1;verticalAlign=bottom;endArrow=open;dashed=1;endSize=8;curved=0;rounded=0;exitX=0;exitY=1;exitDx=0;exitDy=-5;" edge="1" parent="Ynk3GF6o_Werr5BvIIEe-59">
          <mxGeometry relative="1" as="geometry">
            <mxPoint x="50" y="90" as="targetPoint" />
            <mxPoint x="165" y="90" as="sourcePoint" />
          </mxGeometry>
        </mxCell>
        <mxCell id="Ynk3GF6o_Werr5BvIIEe-64" value="예약 가능 날짜 조회 요청" style="html=1;verticalAlign=bottom;endArrow=block;curved=0;rounded=0;" edge="1" parent="Ynk3GF6o_Werr5BvIIEe-59" target="Ynk3GF6o_Werr5BvIIEe-52">
          <mxGeometry width="80" relative="1" as="geometry">
            <mxPoint x="50" y="270" as="sourcePoint" />
            <mxPoint x="169.5" y="270" as="targetPoint" />
          </mxGeometry>
        </mxCell>
        <mxCell id="Ynk3GF6o_Werr5BvIIEe-65" value="예약 가능 날짜 조회 요청" style="html=1;verticalAlign=bottom;endArrow=block;curved=0;rounded=0;" edge="1" parent="Ynk3GF6o_Werr5BvIIEe-59" target="Ynk3GF6o_Werr5BvIIEe-66">
          <mxGeometry width="80" relative="1" as="geometry">
            <mxPoint x="290" y="300" as="sourcePoint" />
            <mxPoint x="530" y="300" as="targetPoint" />
          </mxGeometry>
        </mxCell>
        <mxCell id="Ynk3GF6o_Werr5BvIIEe-66" value="" style="html=1;points=[[0,0,0,0,5],[0,1,0,0,-5],[1,0,0,0,5],[1,1,0,0,-5]];perimeter=orthogonalPerimeter;outlineConnect=0;targetShapes=umlLifeline;portConstraint=eastwest;newEdgeStyle={&quot;curved&quot;:0,&quot;rounded&quot;:0};" vertex="1" parent="Ynk3GF6o_Werr5BvIIEe-59">
          <mxGeometry x="415" y="290" width="10" height="44" as="geometry" />
        </mxCell>
        <mxCell id="Ynk3GF6o_Werr5BvIIEe-67" value="예약&amp;nbsp; 가능 날짜 리스트" style="html=1;verticalAlign=bottom;endArrow=open;dashed=1;endSize=8;curved=0;rounded=0;exitX=0;exitY=1;exitDx=0;exitDy=-5;" edge="1" parent="Ynk3GF6o_Werr5BvIIEe-59" target="Ynk3GF6o_Werr5BvIIEe-52">
          <mxGeometry relative="1" as="geometry">
            <mxPoint x="300" y="325" as="targetPoint" />
            <mxPoint x="415" y="325" as="sourcePoint" />
            <Array as="points">
              <mxPoint x="390" y="325" />
              <mxPoint x="380" y="325" />
            </Array>
          </mxGeometry>
        </mxCell>
        <mxCell id="Ynk3GF6o_Werr5BvIIEe-68" value="예약 가능 날짜 응답" style="html=1;verticalAlign=bottom;endArrow=open;dashed=1;endSize=8;curved=0;rounded=0;" edge="1" parent="Ynk3GF6o_Werr5BvIIEe-59" source="Ynk3GF6o_Werr5BvIIEe-52">
          <mxGeometry relative="1" as="geometry">
            <mxPoint x="170" y="350" as="targetPoint" />
            <mxPoint x="295" y="350" as="sourcePoint" />
          </mxGeometry>
        </mxCell>
        <mxCell id="Ynk3GF6o_Werr5BvIIEe-69" value="예약 가능 날짜 응답" style="html=1;verticalAlign=bottom;endArrow=open;dashed=1;endSize=8;curved=0;rounded=0;" edge="1" parent="Ynk3GF6o_Werr5BvIIEe-59">
          <mxGeometry relative="1" as="geometry">
            <mxPoint x="50" y="360" as="targetPoint" />
            <mxPoint x="170" y="360" as="sourcePoint" />
          </mxGeometry>
        </mxCell>
        <mxCell id="Ynk3GF6o_Werr5BvIIEe-70" value="좌석 정보 API" style="html=1;whiteSpace=wrap;" vertex="1" parent="1">
          <mxGeometry x="-16" y="1332" width="90" height="32" as="geometry" />
        </mxCell>
        <mxCell id="Ynk3GF6o_Werr5BvIIEe-71" value="alt" style="shape=umlFrame;whiteSpace=wrap;html=1;pointerEvents=0;recursiveResize=0;container=1;collapsible=0;width=56;height=30;" vertex="1" parent="1">
          <mxGeometry x="-21" y="1442" width="530" height="400" as="geometry" />
        </mxCell>
        <mxCell id="Ynk3GF6o_Werr5BvIIEe-72" value="[&lt;font style=&quot;font-size: 10px;&quot;&gt;대기 번호 없음&lt;/font&gt;]" style="text;html=1;" vertex="1" parent="Ynk3GF6o_Werr5BvIIEe-71">
          <mxGeometry width="100" height="20" relative="1" as="geometry">
            <mxPoint x="16" y="40" as="offset" />
          </mxGeometry>
        </mxCell>
        <mxCell id="Ynk3GF6o_Werr5BvIIEe-73" value="[&lt;font style=&quot;font-size: 10px;&quot;&gt;대기 번호 존재&lt;/font&gt;]" style="line;strokeWidth=1;dashed=1;labelPosition=center;verticalLabelPosition=bottom;align=left;verticalAlign=top;spacingLeft=20;spacingTop=15;html=1;whiteSpace=wrap;" vertex="1" parent="Ynk3GF6o_Werr5BvIIEe-71">
          <mxGeometry y="195" width="530" height="10" as="geometry" />
        </mxCell>
        <mxCell id="Ynk3GF6o_Werr5BvIIEe-74" value="큐 토큰 저장" style="html=1;verticalAlign=bottom;endArrow=block;curved=0;rounded=0;entryX=0;entryY=0;entryDx=0;entryDy=5;" edge="1" parent="Ynk3GF6o_Werr5BvIIEe-71">
          <mxGeometry relative="1" as="geometry">
            <mxPoint x="396" y="35" as="sourcePoint" />
          </mxGeometry>
        </mxCell>
        <mxCell id="Ynk3GF6o_Werr5BvIIEe-75" value="검증 실패 응답" style="html=1;verticalAlign=bottom;endArrow=open;dashed=1;endSize=8;curved=0;rounded=0;exitX=0;exitY=1;exitDx=0;exitDy=-5;" edge="1" parent="Ynk3GF6o_Werr5BvIIEe-71">
          <mxGeometry relative="1" as="geometry">
            <mxPoint x="50" y="90" as="targetPoint" />
            <mxPoint x="165" y="90" as="sourcePoint" />
          </mxGeometry>
        </mxCell>
        <mxCell id="Ynk3GF6o_Werr5BvIIEe-76" value="좌석 정보 조회 요청" style="html=1;verticalAlign=bottom;endArrow=block;curved=0;rounded=0;" edge="1" parent="Ynk3GF6o_Werr5BvIIEe-71" source="Ynk3GF6o_Werr5BvIIEe-51">
          <mxGeometry x="0.0018" width="80" relative="1" as="geometry">
            <mxPoint x="170" y="270" as="sourcePoint" />
            <mxPoint x="289.5" y="270" as="targetPoint" />
            <mxPoint as="offset" />
          </mxGeometry>
        </mxCell>
        <mxCell id="Ynk3GF6o_Werr5BvIIEe-77" value="좌석 정보 조회&amp;nbsp;" style="html=1;verticalAlign=bottom;endArrow=block;curved=0;rounded=0;" edge="1" parent="Ynk3GF6o_Werr5BvIIEe-71" target="Ynk3GF6o_Werr5BvIIEe-78">
          <mxGeometry width="80" relative="1" as="geometry">
            <mxPoint x="290" y="300" as="sourcePoint" />
            <mxPoint x="530" y="300" as="targetPoint" />
            <Array as="points">
              <mxPoint x="360" y="300" />
            </Array>
          </mxGeometry>
        </mxCell>
        <mxCell id="Ynk3GF6o_Werr5BvIIEe-78" value="" style="html=1;points=[[0,0,0,0,5],[0,1,0,0,-5],[1,0,0,0,5],[1,1,0,0,-5]];perimeter=orthogonalPerimeter;outlineConnect=0;targetShapes=umlLifeline;portConstraint=eastwest;newEdgeStyle={&quot;curved&quot;:0,&quot;rounded&quot;:0};" vertex="1" parent="Ynk3GF6o_Werr5BvIIEe-71">
          <mxGeometry x="415" y="290" width="10" height="44" as="geometry" />
        </mxCell>
        <mxCell id="Ynk3GF6o_Werr5BvIIEe-79" value="좌석 상태 응답" style="html=1;verticalAlign=bottom;endArrow=open;dashed=1;endSize=8;curved=0;rounded=0;exitX=0;exitY=1;exitDx=0;exitDy=-5;" edge="1" parent="Ynk3GF6o_Werr5BvIIEe-71" target="Ynk3GF6o_Werr5BvIIEe-52">
          <mxGeometry relative="1" as="geometry">
            <mxPoint x="300" y="325" as="targetPoint" />
            <mxPoint x="415" y="325" as="sourcePoint" />
            <Array as="points">
              <mxPoint x="390" y="325" />
              <mxPoint x="380" y="325" />
            </Array>
          </mxGeometry>
        </mxCell>
        <mxCell id="Ynk3GF6o_Werr5BvIIEe-80" value="좌석 상태 응답" style="html=1;verticalAlign=bottom;endArrow=open;dashed=1;endSize=8;curved=0;rounded=0;" edge="1" parent="Ynk3GF6o_Werr5BvIIEe-71">
          <mxGeometry relative="1" as="geometry">
            <mxPoint x="170" y="350" as="targetPoint" />
            <mxPoint x="290" y="350" as="sourcePoint" />
          </mxGeometry>
        </mxCell>
        <mxCell id="Ynk3GF6o_Werr5BvIIEe-81" value="좌석 상태 응답" style="html=1;verticalAlign=bottom;endArrow=open;dashed=1;endSize=8;curved=0;rounded=0;" edge="1" parent="Ynk3GF6o_Werr5BvIIEe-71">
          <mxGeometry relative="1" as="geometry">
            <mxPoint x="50" y="368" as="targetPoint" />
            <mxPoint x="170" y="368" as="sourcePoint" />
          </mxGeometry>
        </mxCell>
        <mxCell id="Ynk3GF6o_Werr5BvIIEe-82" value="큐 상태 요청" style="html=1;verticalAlign=bottom;endArrow=block;curved=0;rounded=0;" edge="1" parent="1">
          <mxGeometry width="80" relative="1" as="geometry">
            <mxPoint x="29" y="1382" as="sourcePoint" />
            <mxPoint x="148.5" y="1382" as="targetPoint" />
          </mxGeometry>
        </mxCell>
        <mxCell id="Ynk3GF6o_Werr5BvIIEe-83" value="&lt;font style=&quot;font-size: 10px;&quot;&gt;토큰 정보 확인&lt;/font&gt;" style="html=1;verticalAlign=bottom;endArrow=block;curved=0;rounded=0;" edge="1" parent="1">
          <mxGeometry x="-0.5749" y="4" width="80" relative="1" as="geometry">
            <mxPoint x="149" y="1398" as="sourcePoint" />
            <mxPoint x="149" y="1432" as="targetPoint" />
            <Array as="points">
              <mxPoint x="219" y="1398" />
              <mxPoint x="219" y="1432" />
              <mxPoint x="189" y="1432" />
            </Array>
            <mxPoint as="offset" />
          </mxGeometry>
        </mxCell>
        <mxCell id="Ynk3GF6o_Werr5BvIIEe-84" value="" style="shape=umlLifeline;perimeter=lifelinePerimeter;whiteSpace=wrap;html=1;container=1;dropTarget=0;collapsible=0;recursiveResize=0;outlineConnect=0;portConstraint=eastwest;newEdgeStyle={&quot;curved&quot;:0,&quot;rounded&quot;:0};participant=umlActor;" vertex="1" parent="1">
          <mxGeometry x="45" y="2012" width="20" height="570" as="geometry" />
        </mxCell>
        <mxCell id="Ynk3GF6o_Werr5BvIIEe-85" value="Application" style="shape=umlLifeline;perimeter=lifelinePerimeter;whiteSpace=wrap;html=1;container=1;dropTarget=0;collapsible=0;recursiveResize=0;outlineConnect=0;portConstraint=eastwest;newEdgeStyle={&quot;curved&quot;:0,&quot;rounded&quot;:0};" vertex="1" parent="1">
          <mxGeometry x="245" y="2012" width="100" height="570" as="geometry" />
        </mxCell>
        <mxCell id="Ynk3GF6o_Werr5BvIIEe-86" value="\" style="text;html=1;align=center;verticalAlign=middle;resizable=0;points=[];autosize=1;strokeColor=none;fillColor=none;" vertex="1" parent="1">
          <mxGeometry x="70" y="1970" width="30" height="30" as="geometry" />
        </mxCell>
        <mxCell id="Ynk3GF6o_Werr5BvIIEe-87" value="큐 상태 요청" style="html=1;verticalAlign=bottom;endArrow=block;curved=0;rounded=0;" edge="1" parent="1">
          <mxGeometry width="80" relative="1" as="geometry">
            <mxPoint x="55" y="2112" as="sourcePoint" />
            <mxPoint x="174.5" y="2112" as="targetPoint" />
          </mxGeometry>
        </mxCell>
        <mxCell id="Ynk3GF6o_Werr5BvIIEe-88" value="좌석 예약 API" style="html=1;whiteSpace=wrap;" vertex="1" parent="1">
          <mxGeometry x="19" y="1970" width="90" height="32" as="geometry" />
        </mxCell>
        <mxCell id="Ynk3GF6o_Werr5BvIIEe-89" value="Queue" style="shape=umlLifeline;perimeter=lifelinePerimeter;whiteSpace=wrap;html=1;container=1;dropTarget=0;collapsible=0;recursiveResize=0;outlineConnect=0;portConstraint=eastwest;newEdgeStyle={&quot;curved&quot;:0,&quot;rounded&quot;:0};" vertex="1" parent="1">
          <mxGeometry x="125" y="2012" width="100" height="570" as="geometry" />
        </mxCell>
        <mxCell id="Ynk3GF6o_Werr5BvIIEe-90" value="database" style="shape=umlLifeline;perimeter=lifelinePerimeter;whiteSpace=wrap;html=1;container=1;dropTarget=0;collapsible=0;recursiveResize=0;outlineConnect=0;portConstraint=eastwest;newEdgeStyle={&quot;curved&quot;:0,&quot;rounded&quot;:0};" vertex="1" parent="1">
          <mxGeometry x="375" y="2012" width="100" height="570" as="geometry" />
        </mxCell>
        <mxCell id="Ynk3GF6o_Werr5BvIIEe-91" value="&lt;font style=&quot;font-size: 10px;&quot;&gt;토큰 정보 확인&lt;/font&gt;" style="html=1;verticalAlign=bottom;endArrow=block;curved=0;rounded=0;" edge="1" parent="1" target="Ynk3GF6o_Werr5BvIIEe-89">
          <mxGeometry x="-0.5749" y="4" width="80" relative="1" as="geometry">
            <mxPoint x="175" y="2128" as="sourcePoint" />
            <mxPoint x="174.92857142857133" y="2178" as="targetPoint" />
            <Array as="points">
              <mxPoint x="245" y="2128" />
              <mxPoint x="245" y="2162" />
              <mxPoint x="215" y="2162" />
            </Array>
            <mxPoint as="offset" />
          </mxGeometry>
        </mxCell>
        <mxCell id="Ynk3GF6o_Werr5BvIIEe-92" value="alt" style="shape=umlFrame;whiteSpace=wrap;html=1;pointerEvents=0;recursiveResize=0;container=1;collapsible=0;width=56;height=30;" vertex="1" parent="1">
          <mxGeometry x="5" y="2182" width="530" height="400" as="geometry" />
        </mxCell>
        <mxCell id="Ynk3GF6o_Werr5BvIIEe-93" value="[&lt;font style=&quot;font-size: 10px;&quot;&gt;대기 번호 없음&lt;/font&gt;]" style="text;html=1;" vertex="1" parent="Ynk3GF6o_Werr5BvIIEe-92">
          <mxGeometry width="100" height="20" relative="1" as="geometry">
            <mxPoint x="16" y="40" as="offset" />
          </mxGeometry>
        </mxCell>
        <mxCell id="Ynk3GF6o_Werr5BvIIEe-94" value="[&lt;font style=&quot;font-size: 10px;&quot;&gt;대기 번호 존재&lt;/font&gt;]" style="line;strokeWidth=1;dashed=1;labelPosition=center;verticalLabelPosition=bottom;align=left;verticalAlign=top;spacingLeft=20;spacingTop=15;html=1;whiteSpace=wrap;" vertex="1" parent="Ynk3GF6o_Werr5BvIIEe-92">
          <mxGeometry y="195" width="530" height="10" as="geometry" />
        </mxCell>
        <mxCell id="Ynk3GF6o_Werr5BvIIEe-95" value="큐 토큰 저장" style="html=1;verticalAlign=bottom;endArrow=block;curved=0;rounded=0;entryX=0;entryY=0;entryDx=0;entryDy=5;" edge="1" parent="Ynk3GF6o_Werr5BvIIEe-92">
          <mxGeometry relative="1" as="geometry">
            <mxPoint x="396" y="35" as="sourcePoint" />
          </mxGeometry>
        </mxCell>
        <mxCell id="Ynk3GF6o_Werr5BvIIEe-96" value="검증 실패 응답" style="html=1;verticalAlign=bottom;endArrow=open;dashed=1;endSize=8;curved=0;rounded=0;exitX=0;exitY=1;exitDx=0;exitDy=-5;" edge="1" parent="Ynk3GF6o_Werr5BvIIEe-92">
          <mxGeometry relative="1" as="geometry">
            <mxPoint x="50" y="90" as="targetPoint" />
            <mxPoint x="165" y="90" as="sourcePoint" />
          </mxGeometry>
        </mxCell>
        <mxCell id="Ynk3GF6o_Werr5BvIIEe-97" value="좌석 예약 요청" style="html=1;verticalAlign=bottom;endArrow=block;curved=0;rounded=0;" edge="1" parent="Ynk3GF6o_Werr5BvIIEe-92" target="Ynk3GF6o_Werr5BvIIEe-85">
          <mxGeometry width="80" relative="1" as="geometry">
            <mxPoint x="50" y="270" as="sourcePoint" />
            <mxPoint x="169.5" y="270" as="targetPoint" />
          </mxGeometry>
        </mxCell>
        <mxCell id="Ynk3GF6o_Werr5BvIIEe-98" value="좌석 정보 갱신" style="html=1;verticalAlign=bottom;endArrow=block;curved=0;rounded=0;" edge="1" parent="Ynk3GF6o_Werr5BvIIEe-92" target="Ynk3GF6o_Werr5BvIIEe-99">
          <mxGeometry width="80" relative="1" as="geometry">
            <mxPoint x="290" y="300" as="sourcePoint" />
            <mxPoint x="530" y="300" as="targetPoint" />
            <Array as="points">
              <mxPoint x="310" y="300" />
              <mxPoint x="340" y="300" />
            </Array>
          </mxGeometry>
        </mxCell>
        <mxCell id="Ynk3GF6o_Werr5BvIIEe-99" value="" style="html=1;points=[[0,0,0,0,5],[0,1,0,0,-5],[1,0,0,0,5],[1,1,0,0,-5]];perimeter=orthogonalPerimeter;outlineConnect=0;targetShapes=umlLifeline;portConstraint=eastwest;newEdgeStyle={&quot;curved&quot;:0,&quot;rounded&quot;:0};" vertex="1" parent="Ynk3GF6o_Werr5BvIIEe-92">
          <mxGeometry x="415" y="290" width="10" height="44" as="geometry" />
        </mxCell>
        <mxCell id="Ynk3GF6o_Werr5BvIIEe-100" value="좌석 정보 응답" style="html=1;verticalAlign=bottom;endArrow=open;dashed=1;endSize=8;curved=0;rounded=0;exitX=0;exitY=1;exitDx=0;exitDy=-5;" edge="1" parent="Ynk3GF6o_Werr5BvIIEe-92" target="Ynk3GF6o_Werr5BvIIEe-84">
          <mxGeometry x="0.0026" relative="1" as="geometry">
            <mxPoint x="300" y="325" as="targetPoint" />
            <mxPoint x="415" y="325" as="sourcePoint" />
            <Array as="points">
              <mxPoint x="390" y="325" />
              <mxPoint x="380" y="325" />
            </Array>
            <mxPoint as="offset" />
          </mxGeometry>
        </mxCell>
        <mxCell id="Ynk3GF6o_Werr5BvIIEe-101" value="" style="shape=umlLifeline;perimeter=lifelinePerimeter;whiteSpace=wrap;html=1;container=1;dropTarget=0;collapsible=0;recursiveResize=0;outlineConnect=0;portConstraint=eastwest;newEdgeStyle={&quot;curved&quot;:0,&quot;rounded&quot;:0};participant=umlActor;" vertex="1" parent="1">
          <mxGeometry x="45" y="3462" width="20" height="830" as="geometry" />
        </mxCell>
        <mxCell id="Ynk3GF6o_Werr5BvIIEe-102" value="Application" style="shape=umlLifeline;perimeter=lifelinePerimeter;whiteSpace=wrap;html=1;container=1;dropTarget=0;collapsible=0;recursiveResize=0;outlineConnect=0;portConstraint=eastwest;newEdgeStyle={&quot;curved&quot;:0,&quot;rounded&quot;:0};" vertex="1" parent="1">
          <mxGeometry x="245" y="3462" width="100" height="830" as="geometry" />
        </mxCell>
        <mxCell id="Ynk3GF6o_Werr5BvIIEe-103" value="\" style="text;html=1;align=center;verticalAlign=middle;resizable=0;points=[];autosize=1;strokeColor=none;fillColor=none;" vertex="1" parent="1">
          <mxGeometry x="70" y="3420" width="30" height="30" as="geometry" />
        </mxCell>
        <mxCell id="Ynk3GF6o_Werr5BvIIEe-104" value="큐 상태 요청" style="html=1;verticalAlign=bottom;endArrow=block;curved=0;rounded=0;" edge="1" parent="1">
          <mxGeometry width="80" relative="1" as="geometry">
            <mxPoint x="55" y="3562" as="sourcePoint" />
            <mxPoint x="174.5" y="3562" as="targetPoint" />
          </mxGeometry>
        </mxCell>
        <mxCell id="Ynk3GF6o_Werr5BvIIEe-105" value="좌석 예약 API" style="html=1;whiteSpace=wrap;" vertex="1" parent="1">
          <mxGeometry x="19" y="3420" width="90" height="32" as="geometry" />
        </mxCell>
        <mxCell id="Ynk3GF6o_Werr5BvIIEe-106" value="Queue" style="shape=umlLifeline;perimeter=lifelinePerimeter;whiteSpace=wrap;html=1;container=1;dropTarget=0;collapsible=0;recursiveResize=0;outlineConnect=0;portConstraint=eastwest;newEdgeStyle={&quot;curved&quot;:0,&quot;rounded&quot;:0};" vertex="1" parent="1">
          <mxGeometry x="125" y="3462" width="100" height="830" as="geometry" />
        </mxCell>
        <mxCell id="Ynk3GF6o_Werr5BvIIEe-107" value="database" style="shape=umlLifeline;perimeter=lifelinePerimeter;whiteSpace=wrap;html=1;container=1;dropTarget=0;collapsible=0;recursiveResize=0;outlineConnect=0;portConstraint=eastwest;newEdgeStyle={&quot;curved&quot;:0,&quot;rounded&quot;:0};" vertex="1" parent="1">
          <mxGeometry x="375" y="3462" width="100" height="830" as="geometry" />
        </mxCell>
        <mxCell id="Ynk3GF6o_Werr5BvIIEe-108" value="&lt;font style=&quot;font-size: 10px;&quot;&gt;토큰 정보 확인&lt;/font&gt;" style="html=1;verticalAlign=bottom;endArrow=block;curved=0;rounded=0;" edge="1" parent="1" target="Ynk3GF6o_Werr5BvIIEe-106">
          <mxGeometry x="-0.5749" y="4" width="80" relative="1" as="geometry">
            <mxPoint x="175" y="3578" as="sourcePoint" />
            <mxPoint x="174.92857142857133" y="3628" as="targetPoint" />
            <Array as="points">
              <mxPoint x="245" y="3578" />
              <mxPoint x="245" y="3612" />
              <mxPoint x="215" y="3612" />
            </Array>
            <mxPoint as="offset" />
          </mxGeometry>
        </mxCell>
        <mxCell id="Ynk3GF6o_Werr5BvIIEe-109" value="alt" style="shape=umlFrame;whiteSpace=wrap;html=1;pointerEvents=0;recursiveResize=0;container=1;collapsible=0;width=56;height=30;" vertex="1" parent="1">
          <mxGeometry x="5" y="3632" width="480" height="650" as="geometry" />
        </mxCell>
        <mxCell id="Ynk3GF6o_Werr5BvIIEe-110" value="[&lt;font style=&quot;font-size: 10px;&quot;&gt;대기 번호 없음&lt;/font&gt;]" style="text;html=1;" vertex="1" parent="Ynk3GF6o_Werr5BvIIEe-109">
          <mxGeometry width="100" height="20" relative="1" as="geometry">
            <mxPoint x="16" y="40" as="offset" />
          </mxGeometry>
        </mxCell>
        <mxCell id="Ynk3GF6o_Werr5BvIIEe-111" value="[&lt;font style=&quot;font-size: 10px;&quot;&gt;대기 번호 존재&lt;/font&gt;]" style="line;strokeWidth=1;dashed=1;labelPosition=center;verticalLabelPosition=bottom;align=left;verticalAlign=top;spacingLeft=20;spacingTop=15;html=1;whiteSpace=wrap;" vertex="1" parent="Ynk3GF6o_Werr5BvIIEe-109">
          <mxGeometry x="1" y="110" width="480" height="10" as="geometry" />
        </mxCell>
        <mxCell id="Ynk3GF6o_Werr5BvIIEe-112" value="큐 토큰 저장" style="html=1;verticalAlign=bottom;endArrow=block;curved=0;rounded=0;entryX=0;entryY=0;entryDx=0;entryDy=5;" edge="1" parent="Ynk3GF6o_Werr5BvIIEe-109">
          <mxGeometry relative="1" as="geometry">
            <mxPoint x="396" y="35" as="sourcePoint" />
          </mxGeometry>
        </mxCell>
        <mxCell id="Ynk3GF6o_Werr5BvIIEe-113" value="검증 실패 응답" style="html=1;verticalAlign=bottom;endArrow=open;dashed=1;endSize=8;curved=0;rounded=0;exitX=0;exitY=1;exitDx=0;exitDy=-5;" edge="1" parent="Ynk3GF6o_Werr5BvIIEe-109">
          <mxGeometry relative="1" as="geometry">
            <mxPoint x="50" y="80" as="targetPoint" />
            <mxPoint x="165" y="80" as="sourcePoint" />
          </mxGeometry>
        </mxCell>
        <mxCell id="Ynk3GF6o_Werr5BvIIEe-114" value="alt" style="shape=umlFrame;whiteSpace=wrap;html=1;pointerEvents=0;recursiveResize=0;container=1;collapsible=0;width=56;height=30;" vertex="1" parent="Ynk3GF6o_Werr5BvIIEe-109">
          <mxGeometry x="31" y="190" width="420" height="360" as="geometry" />
        </mxCell>
        <mxCell id="Ynk3GF6o_Werr5BvIIEe-115" value="[&lt;font style=&quot;font-size: 10px;&quot;&gt;소유권 점유중&lt;/font&gt;]" style="text;html=1;" vertex="1" parent="Ynk3GF6o_Werr5BvIIEe-114">
          <mxGeometry width="100" height="20" relative="1" as="geometry">
            <mxPoint x="16" y="40" as="offset" />
          </mxGeometry>
        </mxCell>
        <mxCell id="Ynk3GF6o_Werr5BvIIEe-116" value="[&lt;font style=&quot;font-size: 10px;&quot;&gt;소유권 만료&lt;/font&gt;]" style="line;strokeWidth=1;dashed=1;labelPosition=center;verticalLabelPosition=bottom;align=left;verticalAlign=top;spacingLeft=20;spacingTop=15;html=1;whiteSpace=wrap;" vertex="1" parent="Ynk3GF6o_Werr5BvIIEe-114">
          <mxGeometry y="195" width="420" height="10" as="geometry" />
        </mxCell>
        <mxCell id="Ynk3GF6o_Werr5BvIIEe-117" value="큐 토큰 저장" style="html=1;verticalAlign=bottom;endArrow=block;curved=0;rounded=0;entryX=0;entryY=0;entryDx=0;entryDy=5;" edge="1" parent="Ynk3GF6o_Werr5BvIIEe-114">
          <mxGeometry relative="1" as="geometry">
            <mxPoint x="396" y="35" as="sourcePoint" />
          </mxGeometry>
        </mxCell>
        <mxCell id="Ynk3GF6o_Werr5BvIIEe-118" value="잔액 조회 응답" style="html=1;verticalAlign=bottom;endArrow=open;dashed=1;endSize=8;curved=0;rounded=0;exitX=0;exitY=1;exitDx=0;exitDy=-5;" edge="1" parent="Ynk3GF6o_Werr5BvIIEe-114" target="Ynk3GF6o_Werr5BvIIEe-122">
          <mxGeometry x="0.0037" relative="1" as="geometry">
            <mxPoint x="269" y="53" as="targetPoint" />
            <mxPoint x="384" y="53" as="sourcePoint" />
            <mxPoint as="offset" />
          </mxGeometry>
        </mxCell>
        <mxCell id="Ynk3GF6o_Werr5BvIIEe-119" value="잔액 조회" style="html=1;verticalAlign=bottom;endArrow=block;curved=0;rounded=0;" edge="1" parent="Ynk3GF6o_Werr5BvIIEe-114">
          <mxGeometry x="0.0021" width="80" relative="1" as="geometry">
            <mxPoint x="264" y="30" as="sourcePoint" />
            <mxPoint x="389" y="30" as="targetPoint" />
            <mxPoint as="offset" />
          </mxGeometry>
        </mxCell>
        <mxCell id="Ynk3GF6o_Werr5BvIIEe-120" value="예약 완료 저장" style="html=1;verticalAlign=bottom;endArrow=block;curved=0;rounded=0;" edge="1" parent="Ynk3GF6o_Werr5BvIIEe-114">
          <mxGeometry x="0.0021" width="80" relative="1" as="geometry">
            <mxPoint x="264" y="100" as="sourcePoint" />
            <mxPoint x="388.5" y="100" as="targetPoint" />
            <mxPoint as="offset" />
          </mxGeometry>
        </mxCell>
        <mxCell id="Ynk3GF6o_Werr5BvIIEe-121" value="소유권 만료 응답" style="html=1;verticalAlign=bottom;endArrow=open;dashed=1;endSize=8;curved=0;rounded=0;exitX=0;exitY=1;exitDx=0;exitDy=-5;" edge="1" parent="Ynk3GF6o_Werr5BvIIEe-114">
          <mxGeometry x="0.0037" relative="1" as="geometry">
            <mxPoint x="19" y="260" as="targetPoint" />
            <mxPoint x="253" y="260" as="sourcePoint" />
            <mxPoint as="offset" />
          </mxGeometry>
        </mxCell>
        <mxCell id="Ynk3GF6o_Werr5BvIIEe-122" value="" style="html=1;points=[[0,0,0,0,5],[0,1,0,0,-5],[1,0,0,0,5],[1,1,0,0,-5]];perimeter=orthogonalPerimeter;outlineConnect=0;targetShapes=umlLifeline;portConstraint=eastwest;newEdgeStyle={&quot;curved&quot;:0,&quot;rounded&quot;:0};" vertex="1" parent="Ynk3GF6o_Werr5BvIIEe-109">
          <mxGeometry x="285" y="150" width="10" height="318" as="geometry" />
        </mxCell>
        <mxCell id="Ynk3GF6o_Werr5BvIIEe-123" value="결제 요청" style="html=1;verticalAlign=bottom;endArrow=block;curved=0;rounded=0;" edge="1" parent="1" source="Ynk3GF6o_Werr5BvIIEe-101" target="Ynk3GF6o_Werr5BvIIEe-122">
          <mxGeometry x="0.0021" width="80" relative="1" as="geometry">
            <mxPoint x="55" y="3902" as="sourcePoint" />
            <mxPoint x="285" y="3802" as="targetPoint" />
            <Array as="points">
              <mxPoint x="145" y="3802" />
            </Array>
            <mxPoint as="offset" />
          </mxGeometry>
        </mxCell>
        <mxCell id="Ynk3GF6o_Werr5BvIIEe-124" value="예약 완료 응답" style="html=1;verticalAlign=bottom;endArrow=open;dashed=1;endSize=8;curved=0;rounded=0;exitX=0;exitY=1;exitDx=0;exitDy=-5;" edge="1" parent="1" target="Ynk3GF6o_Werr5BvIIEe-101">
          <mxGeometry x="0.0037" relative="1" as="geometry">
            <mxPoint x="169" y="3943" as="targetPoint" />
            <mxPoint x="289" y="3943" as="sourcePoint" />
            <mxPoint as="offset" />
          </mxGeometry>
        </mxCell>
      </root>
    </mxGraphModel>
  </diagram>
</mxfile>
